<svg xmlns="http://www.w3.org/2000/svg"
  xmlns:xlink="http://www.w3.org/1999/xlink" width="16" height="16"
  viewBox="0 0 16 16">
  <g transform="translate(4.069 0.041)">
    <path stroke="#e5136c"
      d="M4,8A4,4,0,1,1,6.5.879a4.023,4.023,0,0,0-.7.722A2.972,2.972,0,0,0,4,1,3,3,0,0,0,4,7a2.972,2.972,0,0,0,1.8-.6,4.023,4.023,0,0,0,.7.722A4.008,4.008,0,0,1,4,8Z"
      transform="translate(-2 5)"  />
    <g transform="translate(-468 -334)">
      <path d="M0-.265,1.064.556,1.1,9.368l-1.063-.9Z" stroke="#e5136c"
        transform="matrix(0.809, -0.588, 0.588, 0.809, 473.47, 339.642)"
         />
      <path d="M1.1-.265.027.566,0,9.479l1.063-.91Z" stroke="#e5136c"
        transform="matrix(0.809, 0.588, -0.588, 0.809, 478.576, 338.911)"
         />
    </g>
  </g>
</svg>